<mxfile host="65bd71144e">
    <diagram id="5JGs2AWjne60HqyosO0a" name="Page-1">
        <mxGraphModel dx="896" dy="607" grid="1" gridSize="10" guides="1" tooltips="1" connect="1" arrows="1" fold="1" page="1" pageScale="1" pageWidth="827" pageHeight="1169" math="0" shadow="0">
            <root>
                <mxCell id="0"/>
                <mxCell id="1" parent="0"/>
                <mxCell id="7" value="" style="edgeStyle=none;html=1;" parent="1" source="2" target="6" edge="1">
                    <mxGeometry relative="1" as="geometry"/>
                </mxCell>
                <mxCell id="8" value="" style="edgeStyle=none;html=1;" parent="1" source="2" target="6" edge="1">
                    <mxGeometry relative="1" as="geometry"/>
                </mxCell>
                <mxCell id="9" value="" style="edgeStyle=none;html=1;" parent="1" source="2" target="6" edge="1">
                    <mxGeometry relative="1" as="geometry"/>
                </mxCell>
                <mxCell id="11" value="" style="edgeStyle=none;html=1;" parent="1" source="2" target="6" edge="1">
                    <mxGeometry relative="1" as="geometry"/>
                </mxCell>
                <mxCell id="12" value="" style="edgeStyle=none;html=1;" parent="1" source="2" target="6" edge="1">
                    <mxGeometry relative="1" as="geometry"/>
                </mxCell>
                <mxCell id="13" style="edgeStyle=none;html=1;entryX=0;entryY=0.5;entryDx=0;entryDy=0;" parent="1" source="2" target="14" edge="1">
                    <mxGeometry relative="1" as="geometry">
                        <mxPoint x="470" y="200" as="targetPoint"/>
                    </mxGeometry>
                </mxCell>
                <mxCell id="40" style="edgeStyle=none;html=1;entryX=0;entryY=0.5;entryDx=0;entryDy=0;" parent="1" source="2" target="38" edge="1">
                    <mxGeometry relative="1" as="geometry"/>
                </mxCell>
                <mxCell id="2" value="Creation Libre" style="html=1;" parent="1" vertex="1">
                    <mxGeometry x="270" y="150" width="120" height="50" as="geometry"/>
                </mxCell>
                <mxCell id="20" value="" style="edgeStyle=none;html=1;" parent="1" source="3" target="19" edge="1">
                    <mxGeometry relative="1" as="geometry"/>
                </mxCell>
                <mxCell id="3" value="Construction Guidée" style="html=1;" parent="1" vertex="1">
                    <mxGeometry x="270" y="280" width="120" height="50" as="geometry"/>
                </mxCell>
                <mxCell id="32" value="" style="edgeStyle=none;html=1;" parent="1" source="4" target="31" edge="1">
                    <mxGeometry relative="1" as="geometry"/>
                </mxCell>
                <mxCell id="37" style="edgeStyle=none;html=1;exitX=1;exitY=0.5;exitDx=0;exitDy=0;entryX=0;entryY=0.5;entryDx=0;entryDy=0;" parent="1" source="4" target="36" edge="1">
                    <mxGeometry relative="1" as="geometry"/>
                </mxCell>
                <mxCell id="4" value="Multijoueur&lt;br&gt;(voir concours &lt;br&gt;minecraft)" style="html=1;" parent="1" vertex="1">
                    <mxGeometry x="270" y="400" width="120" height="50" as="geometry"/>
                </mxCell>
                <mxCell id="6" value="Zone de creation" style="html=1;" parent="1" vertex="1">
                    <mxGeometry x="460" y="50" width="120" height="50" as="geometry"/>
                </mxCell>
                <mxCell id="16" value="" style="edgeStyle=none;html=1;" parent="1" source="14" target="15" edge="1">
                    <mxGeometry relative="1" as="geometry"/>
                </mxCell>
                <mxCell id="18" style="edgeStyle=none;html=1;exitX=1;exitY=0.5;exitDx=0;exitDy=0;" parent="1" source="14" target="17" edge="1">
                    <mxGeometry relative="1" as="geometry"/>
                </mxCell>
                <mxCell id="42" style="edgeStyle=none;html=1;exitX=1;exitY=0.5;exitDx=0;exitDy=0;entryX=0;entryY=0.5;entryDx=0;entryDy=0;" edge="1" parent="1" source="14" target="41">
                    <mxGeometry relative="1" as="geometry"/>
                </mxCell>
                <mxCell id="14" value="Ominitrix sur &lt;br&gt;l'avant bras" style="html=1;" parent="1" vertex="1">
                    <mxGeometry x="470" y="130" width="110" height="50" as="geometry"/>
                </mxCell>
                <mxCell id="15" value="Placement de piece" style="html=1;" parent="1" vertex="1">
                    <mxGeometry x="660" y="70" width="110" height="50" as="geometry"/>
                </mxCell>
                <mxCell id="17" value="Peindre des pieces" style="html=1;" parent="1" vertex="1">
                    <mxGeometry x="660" y="140" width="110" height="50" as="geometry"/>
                </mxCell>
                <mxCell id="22" value="" style="edgeStyle=none;html=1;" parent="1" source="19" target="21" edge="1">
                    <mxGeometry relative="1" as="geometry"/>
                </mxCell>
                <mxCell id="23" value="" style="edgeStyle=none;html=1;" parent="1" source="19" target="21" edge="1">
                    <mxGeometry relative="1" as="geometry"/>
                </mxCell>
                <mxCell id="25" style="edgeStyle=none;html=1;exitX=1;exitY=0.5;exitDx=0;exitDy=0;entryX=0;entryY=0.5;entryDx=0;entryDy=0;" parent="1" source="19" target="24" edge="1">
                    <mxGeometry relative="1" as="geometry"/>
                </mxCell>
                <mxCell id="19" value="Menu de notices" style="html=1;" parent="1" vertex="1">
                    <mxGeometry x="470" y="280" width="120" height="50" as="geometry"/>
                </mxCell>
                <mxCell id="21" value="Pdf interactif en 3D" style="html=1;" parent="1" vertex="1">
                    <mxGeometry x="670" y="280" width="120" height="50" as="geometry"/>
                </mxCell>
                <mxCell id="24" value="Chaque etape les &lt;br&gt;pieces aparaisse" style="html=1;rounded=0;align=center;" parent="1" vertex="1">
                    <mxGeometry x="670" y="340" width="120" height="50" as="geometry"/>
                </mxCell>
                <mxCell id="27" style="edgeStyle=none;html=1;exitX=1;exitY=0.25;exitDx=0;exitDy=0;entryX=0;entryY=0.5;entryDx=0;entryDy=0;" parent="1" source="26" target="2" edge="1">
                    <mxGeometry relative="1" as="geometry"/>
                </mxCell>
                <mxCell id="28" style="edgeStyle=none;html=1;exitX=1;exitY=0.5;exitDx=0;exitDy=0;entryX=0;entryY=0.5;entryDx=0;entryDy=0;" parent="1" source="26" target="3" edge="1">
                    <mxGeometry relative="1" as="geometry"/>
                </mxCell>
                <mxCell id="29" style="edgeStyle=none;html=1;exitX=1;exitY=0.5;exitDx=0;exitDy=0;entryX=0;entryY=0.5;entryDx=0;entryDy=0;" parent="1" source="26" target="4" edge="1">
                    <mxGeometry relative="1" as="geometry"/>
                </mxCell>
                <mxCell id="26" value="Salle de selection" style="html=1;" parent="1" vertex="1">
                    <mxGeometry x="50" y="280" width="120" height="50" as="geometry"/>
                </mxCell>
                <mxCell id="31" value="Choix du thème&lt;br&gt;&amp;nbsp;aléatoire &lt;br&gt;et du temps" style="html=1;" parent="1" vertex="1">
                    <mxGeometry x="470" y="400" width="120" height="50" as="geometry"/>
                </mxCell>
                <mxCell id="36" value="Creation des equipes" style="html=1;" parent="1" vertex="1">
                    <mxGeometry x="470" y="470" width="120" height="50" as="geometry"/>
                </mxCell>
                <mxCell id="38" value="Partage de la salle&lt;br&gt;Pour creer ensemble" style="html=1;" parent="1" vertex="1">
                    <mxGeometry x="470" y="200" width="110" height="50" as="geometry"/>
                </mxCell>
                <mxCell id="41" value="Menu radiale" style="html=1;" vertex="1" parent="1">
                    <mxGeometry x="660" y="200" width="110" height="50" as="geometry"/>
                </mxCell>
            </root>
        </mxGraphModel>
    </diagram>
</mxfile>